# MagicaVoxel @ Ephtracy

# group
o 

# material
mtllib Yuugu_suberidai.mtl
usemtl palette

# normals
vn -1 0 0
vn 1 0 0
vn 0 0 1
vn 0 0 -1
vn 0 -1 0
vn 0 1 0

# texcoords
vt 0.185547 0.5
vt 0.845703 0.5
vt 0.900391 0.5
vt 0.978516 0.5

# verts
v 0 2 0
v 0 2 -0.1
v 0 2 -0.4
v 0 2 -0.5
v 0 2.1 -0.1
v 0 2.1 -0.4
v 0 2.4 0
v 0 2.4 -0.1
v 0 2.4 -0.4
v 0 2.4 -0.5
v 0.1 2.1 -0.1
v 0.1 2.1 -0.4
v 0.1 2.2 -0.1
v 0.1 2.2 -0.4
v 0.1 2.4 0
v 0.1 2.4 -0.1
v 0.1 2.4 -0.4
v 0.1 2.4 -0.5
v 0.1 2.5 0
v 0.1 2.5 -0.1
v 0.1 2.5 -0.4
v 0.1 2.5 -0.5
v 0.2 2.2 0
v 0.2 2.2 -0.1
v 0.2 2.2 -0.4
v 0.2 2.2 -0.5
v 0.2 2.3 -0.1
v 0.2 2.3 -0.4
v 0.2 2.4 0
v 0.2 2.4 -0.1
v 0.2 2.4 -0.4
v 0.2 2.4 -0.5
v 0.2 2.5 0
v 0.2 2.5 -0.1
v 0.2 2.5 -0.4
v 0.2 2.5 -0.5
v 0.2 2.6 0
v 0.2 2.6 -0.1
v 0.2 2.6 -0.4
v 0.2 2.6 -0.5
v 0.3 2.3 -0.1
v 0.3 2.3 -0.4
v 0.3 2.4 -0.1
v 0.3 2.4 -0.4
v 0.3 2.6 0
v 0.3 2.6 -0.1
v 0.3 2.6 -0.4
v 0.3 2.6 -0.5
v 0.3 2.7 0
v 0.3 2.7 -0.1
v 0.3 2.7 -0.4
v 0.3 2.7 -0.5
v 0.4 2.4 0
v 0.4 2.4 -0.1
v 0.4 2.4 -0.4
v 0.4 2.4 -0.5
v 0.4 2.5 -0.1
v 0.4 2.5 -0.4
v 0.4 2.6 0
v 0.4 2.6 -0.1
v 0.4 2.6 -0.4
v 0.4 2.6 -0.5
v 0.4 2.7 0
v 0.4 2.7 -0.1
v 0.4 2.7 -0.4
v 0.4 2.7 -0.5
v 0.4 2.8 0
v 0.4 2.8 -0.1
v 0.4 2.8 -0.4
v 0.4 2.8 -0.5
v 0.6 2 -0.2
v 0.6 2 -0.3
v 0.6 2.4 -0.2
v 0.6 2.4 -0.3
v 0.7 2.5 0
v 0.7 2.5 -0.1
v 0.7 2.5 -0.4
v 0.7 2.5 -0.5
v 0.7 2.7 0
v 0.7 2.7 -0.1
v 0.7 2.7 -0.4
v 0.7 2.7 -0.5
v 1 2.3 0
v 1 2.3 -0.5
v 1 2.4 0
v 1 2.4 -0.5
v 1.2 2.2 0
v 1.2 2.2 -0.5
v 1.2 2.3 0
v 1.2 2.3 -0.5
v 1.4 2.1 0
v 1.4 2.1 -0.5
v 1.4 2.2 0
v 1.4 2.2 -0.5
v 1.6 2 0
v 1.6 2 -0.5
v 1.6 2.1 0
v 1.6 2.1 -0.5
v 0.1 2 0
v 0.1 2 -0.1
v 0.1 2 -0.4
v 0.1 2 -0.5
v 0.1 2.1 0
v 0.1 2.1 -0.1
v 0.1 2.1 -0.4
v 0.1 2.1 -0.5
v 0.1 2.2 0
v 0.1 2.2 -0.1
v 0.1 2.2 -0.4
v 0.1 2.2 -0.5
v 0.1 2.4 0
v 0.1 2.4 -0.1
v 0.1 2.4 -0.4
v 0.1 2.4 -0.5
v 0.2 2.1 0
v 0.2 2.1 -0.1
v 0.2 2.1 -0.4
v 0.2 2.1 -0.5
v 0.2 2.2 0
v 0.2 2.2 -0.1
v 0.2 2.2 -0.4
v 0.2 2.2 -0.5
v 0.3 2.2 0
v 0.3 2.2 -0.1
v 0.3 2.2 -0.4
v 0.3 2.2 -0.5
v 0.3 2.3 0
v 0.3 2.3 -0.1
v 0.3 2.3 -0.4
v 0.3 2.3 -0.5
v 0.3 2.4 0
v 0.3 2.4 -0.1
v 0.3 2.4 -0.4
v 0.3 2.4 -0.5
v 0.3 2.6 0
v 0.3 2.6 -0.1
v 0.3 2.6 -0.4
v 0.3 2.6 -0.5
v 0.4 2.3 0
v 0.4 2.3 -0.1
v 0.4 2.3 -0.4
v 0.4 2.3 -0.5
v 0.4 2.4 0
v 0.4 2.4 -0.1
v 0.4 2.4 -0.4
v 0.4 2.4 -0.5
v 0.6 2.5 0
v 0.6 2.5 -0.1
v 0.6 2.5 -0.4
v 0.6 2.5 -0.5
v 0.6 2.7 0
v 0.6 2.7 -0.1
v 0.6 2.7 -0.4
v 0.6 2.7 -0.5
v 0.7 2 -0.2
v 0.7 2 -0.3
v 0.7 2.4 -0.2
v 0.7 2.4 -0.3
v 0.8 2.7 0
v 0.8 2.7 -0.1
v 0.8 2.7 -0.4
v 0.8 2.7 -0.5
v 0.8 2.8 0
v 0.8 2.8 -0.1
v 0.8 2.8 -0.4
v 0.8 2.8 -0.5
v 1 2.4 -0.1
v 1 2.4 -0.4
v 1 2.5 -0.1
v 1 2.5 -0.4
v 1 2.6 0
v 1 2.6 -0.1
v 1 2.6 -0.4
v 1 2.6 -0.5
v 1 2.7 0
v 1 2.7 -0.1
v 1 2.7 -0.4
v 1 2.7 -0.5
v 1.2 2.3 -0.1
v 1.2 2.3 -0.4
v 1.2 2.4 -0.1
v 1.2 2.4 -0.4
v 1.2 2.5 0
v 1.2 2.5 -0.1
v 1.2 2.5 -0.4
v 1.2 2.5 -0.5
v 1.2 2.6 0
v 1.2 2.6 -0.1
v 1.2 2.6 -0.4
v 1.2 2.6 -0.5
v 1.4 2.2 -0.1
v 1.4 2.2 -0.4
v 1.4 2.3 -0.1
v 1.4 2.3 -0.4
v 1.4 2.4 0
v 1.4 2.4 -0.1
v 1.4 2.4 -0.4
v 1.4 2.4 -0.5
v 1.4 2.5 0
v 1.4 2.5 -0.1
v 1.4 2.5 -0.4
v 1.4 2.5 -0.5
v 1.6 2.1 -0.1
v 1.6 2.1 -0.4
v 1.6 2.2 -0.1
v 1.6 2.2 -0.4
v 1.6 2.3 0
v 1.6 2.3 -0.1
v 1.6 2.3 -0.4
v 1.6 2.3 -0.5
v 1.6 2.4 0
v 1.6 2.4 -0.1
v 1.6 2.4 -0.4
v 1.6 2.4 -0.5
v 1.8 2.2 0
v 1.8 2.2 -0.1
v 1.8 2.2 -0.4
v 1.8 2.2 -0.5
v 1.8 2.3 0
v 1.8 2.3 -0.1
v 1.8 2.3 -0.4
v 1.8 2.3 -0.5
v 1.9 2.1 0
v 1.9 2.1 -0.1
v 1.9 2.1 -0.4
v 1.9 2.1 -0.5
v 1.9 2.2 0
v 1.9 2.2 -0.1
v 1.9 2.2 -0.4
v 1.9 2.2 -0.5
v 2 2 0
v 2 2 -0.5
v 2 2.1 0
v 2 2.1 -0.5
v 0 2 0
v 0 2.4 0
v 0.1 2 0
v 0.1 2.1 0
v 0.1 2.2 0
v 0.1 2.4 0
v 0.1 2.5 0
v 0.2 2.1 0
v 0.2 2.2 0
v 0.2 2.4 0
v 0.2 2.5 0
v 0.2 2.6 0
v 0.3 2.2 0
v 0.3 2.3 0
v 0.3 2.4 0
v 0.3 2.6 0
v 0.3 2.7 0
v 0.4 2.3 0
v 0.4 2.4 0
v 0.4 2.6 0
v 0.4 2.7 0
v 0.4 2.8 0
v 0.5 2.4 0
v 0.5 2.8 0
v 0.6 2.5 0
v 0.6 2.7 0
v 0.7 2.5 0
v 0.7 2.7 0
v 0.8 2.4 0
v 0.8 2.7 0
v 0.8 2.8 0
v 1 2.3 0
v 1 2.4 0
v 1 2.6 0
v 1 2.7 0
v 1.2 2.2 0
v 1.2 2.3 0
v 1.2 2.5 0
v 1.2 2.6 0
v 1.4 2.1 0
v 1.4 2.2 0
v 1.4 2.4 0
v 1.4 2.5 0
v 1.6 2 0
v 1.6 2.1 0
v 1.6 2.3 0
v 1.6 2.4 0
v 1.8 2.2 0
v 1.8 2.3 0
v 1.9 2.1 0
v 1.9 2.2 0
v 2 2 0
v 2 2.1 0
v 0.6 2 -0.2
v 0.6 2.4 -0.2
v 0.7 2 -0.2
v 0.7 2.4 -0.2
v 0 2.1 -0.4
v 0 2.4 -0.4
v 0.1 2.1 -0.4
v 0.1 2.2 -0.4
v 0.1 2.4 -0.4
v 0.1 2.5 -0.4
v 0.2 2.3 -0.4
v 0.2 2.4 -0.4
v 0.2 2.5 -0.4
v 0.2 2.6 -0.4
v 0.3 2.3 -0.4
v 0.3 2.4 -0.4
v 0.3 2.6 -0.4
v 0.3 2.7 -0.4
v 0.4 2.5 -0.4
v 0.4 2.6 -0.4
v 0.4 2.7 -0.4
v 0.4 2.8 -0.4
v 0.5 2.5 -0.4
v 0.5 2.8 -0.4
v 0.6 2.5 -0.4
v 0.6 2.7 -0.4
v 0.7 2.5 -0.4
v 0.7 2.7 -0.4
v 0.8 2.5 -0.4
v 0.8 2.7 -0.4
v 0.8 2.8 -0.4
v 1 2.4 -0.4
v 1 2.5 -0.4
v 1 2.6 -0.4
v 1 2.7 -0.4
v 1.2 2.3 -0.4
v 1.2 2.4 -0.4
v 1.2 2.5 -0.4
v 1.2 2.6 -0.4
v 1.4 2.2 -0.4
v 1.4 2.3 -0.4
v 1.4 2.4 -0.4
v 1.4 2.5 -0.4
v 1.6 2.1 -0.4
v 1.6 2.2 -0.4
v 1.6 2.3 -0.4
v 1.6 2.4 -0.4
v 1.8 2.2 -0.4
v 1.8 2.3 -0.4
v 1.9 2.1 -0.4
v 1.9 2.2 -0.4
v 0 2.1 -0.1
v 0 2.4 -0.1
v 0.1 2.1 -0.1
v 0.1 2.2 -0.1
v 0.1 2.4 -0.1
v 0.1 2.5 -0.1
v 0.2 2.3 -0.1
v 0.2 2.4 -0.1
v 0.2 2.5 -0.1
v 0.2 2.6 -0.1
v 0.3 2.3 -0.1
v 0.3 2.4 -0.1
v 0.3 2.6 -0.1
v 0.3 2.7 -0.1
v 0.4 2.5 -0.1
v 0.4 2.6 -0.1
v 0.4 2.7 -0.1
v 0.4 2.8 -0.1
v 0.5 2.5 -0.1
v 0.5 2.8 -0.1
v 0.6 2.5 -0.1
v 0.6 2.7 -0.1
v 0.7 2.5 -0.1
v 0.7 2.7 -0.1
v 0.8 2.5 -0.1
v 0.8 2.7 -0.1
v 0.8 2.8 -0.1
v 1 2.4 -0.1
v 1 2.5 -0.1
v 1 2.6 -0.1
v 1 2.7 -0.1
v 1.2 2.3 -0.1
v 1.2 2.4 -0.1
v 1.2 2.5 -0.1
v 1.2 2.6 -0.1
v 1.4 2.2 -0.1
v 1.4 2.3 -0.1
v 1.4 2.4 -0.1
v 1.4 2.5 -0.1
v 1.6 2.1 -0.1
v 1.6 2.2 -0.1
v 1.6 2.3 -0.1
v 1.6 2.4 -0.1
v 1.8 2.2 -0.1
v 1.8 2.3 -0.1
v 1.9 2.1 -0.1
v 1.9 2.2 -0.1
v 0.6 2 -0.3
v 0.6 2.4 -0.3
v 0.7 2 -0.3
v 0.7 2.4 -0.3
v 0 2 -0.5
v 0 2.4 -0.5
v 0.1 2 -0.5
v 0.1 2.1 -0.5
v 0.1 2.2 -0.5
v 0.1 2.4 -0.5
v 0.1 2.5 -0.5
v 0.2 2.1 -0.5
v 0.2 2.2 -0.5
v 0.2 2.4 -0.5
v 0.2 2.5 -0.5
v 0.2 2.6 -0.5
v 0.3 2.2 -0.5
v 0.3 2.3 -0.5
v 0.3 2.4 -0.5
v 0.3 2.6 -0.5
v 0.3 2.7 -0.5
v 0.4 2.3 -0.5
v 0.4 2.4 -0.5
v 0.4 2.6 -0.5
v 0.4 2.7 -0.5
v 0.4 2.8 -0.5
v 0.5 2.4 -0.5
v 0.5 2.8 -0.5
v 0.6 2.5 -0.5
v 0.6 2.7 -0.5
v 0.7 2.5 -0.5
v 0.7 2.7 -0.5
v 0.8 2.4 -0.5
v 0.8 2.7 -0.5
v 0.8 2.8 -0.5
v 1 2.3 -0.5
v 1 2.4 -0.5
v 1 2.6 -0.5
v 1 2.7 -0.5
v 1.2 2.2 -0.5
v 1.2 2.3 -0.5
v 1.2 2.5 -0.5
v 1.2 2.6 -0.5
v 1.4 2.1 -0.5
v 1.4 2.2 -0.5
v 1.4 2.4 -0.5
v 1.4 2.5 -0.5
v 1.6 2 -0.5
v 1.6 2.1 -0.5
v 1.6 2.3 -0.5
v 1.6 2.4 -0.5
v 1.8 2.2 -0.5
v 1.8 2.3 -0.5
v 1.9 2.1 -0.5
v 1.9 2.2 -0.5
v 2 2 -0.5
v 2 2.1 -0.5
v 0 2 0
v 0.1 2 0
v 1.6 2 0
v 2 2 0
v 0 2 -0.1
v 0.1 2 -0.1
v 0.6 2 -0.2
v 0.7 2 -0.2
v 0.6 2 -0.3
v 0.7 2 -0.3
v 0 2 -0.4
v 0.1 2 -0.4
v 0 2 -0.5
v 0.1 2 -0.5
v 1.6 2 -0.5
v 2 2 -0.5
v 0.1 2.1 0
v 0.2 2.1 0
v 1.4 2.1 0
v 1.6 2.1 0
v 0.1 2.1 -0.1
v 0.2 2.1 -0.1
v 0.1 2.1 -0.4
v 0.2 2.1 -0.4
v 0.1 2.1 -0.5
v 0.2 2.1 -0.5
v 1.4 2.1 -0.5
v 1.6 2.1 -0.5
v 0.2 2.2 0
v 0.3 2.2 0
v 1.2 2.2 0
v 1.4 2.2 0
v 0.2 2.2 -0.1
v 0.3 2.2 -0.1
v 0.2 2.2 -0.4
v 0.3 2.2 -0.4
v 0.2 2.2 -0.5
v 0.3 2.2 -0.5
v 1.2 2.2 -0.5
v 1.4 2.2 -0.5
v 0.3 2.3 0
v 0.4 2.3 0
v 1 2.3 0
v 1.2 2.3 0
v 0.3 2.3 -0.1
v 0.4 2.3 -0.1
v 0.3 2.3 -0.4
v 0.4 2.3 -0.4
v 0.3 2.3 -0.5
v 0.4 2.3 -0.5
v 1 2.3 -0.5
v 1.2 2.3 -0.5
v 0.1 2.4 0
v 0.2 2.4 0
v 0.4 2.4 0
v 0.5 2.4 0
v 0.8 2.4 0
v 1 2.4 0
v 0.1 2.4 -0.1
v 0.2 2.4 -0.1
v 0.4 2.4 -0.1
v 0.5 2.4 -0.1
v 0.8 2.4 -0.1
v 0.6 2.4 -0.2
v 0.7 2.4 -0.2
v 0.6 2.4 -0.3
v 0.7 2.4 -0.3
v 0.1 2.4 -0.4
v 0.2 2.4 -0.4
v 0.4 2.4 -0.4
v 0.5 2.4 -0.4
v 0.8 2.4 -0.4
v 0.1 2.4 -0.5
v 0.2 2.4 -0.5
v 0.4 2.4 -0.5
v 0.5 2.4 -0.5
v 0.8 2.4 -0.5
v 1 2.4 -0.5
v 0.3 2.6 0
v 0.4 2.6 0
v 0.3 2.6 -0.1
v 0.4 2.6 -0.1
v 0.3 2.6 -0.4
v 0.4 2.6 -0.4
v 0.3 2.6 -0.5
v 0.4 2.6 -0.5
v 0.6 2.7 0
v 0.7 2.7 0
v 0.6 2.7 -0.1
v 0.7 2.7 -0.1
v 0.6 2.7 -0.4
v 0.7 2.7 -0.4
v 0.6 2.7 -0.5
v 0.7 2.7 -0.5
v 1.9 2.1 0
v 2 2.1 0
v 0 2.1 -0.1
v 0.1 2.1 -0.1
v 1.6 2.1 -0.1
v 1.9 2.1 -0.1
v 0 2.1 -0.4
v 0.1 2.1 -0.4
v 1.6 2.1 -0.4
v 1.9 2.1 -0.4
v 1.9 2.1 -0.5
v 2 2.1 -0.5
v 0.1 2.2 0
v 0.2 2.2 0
v 1.8 2.2 0
v 1.9 2.2 0
v 0.1 2.2 -0.1
v 0.2 2.2 -0.1
v 1.4 2.2 -0.1
v 1.6 2.2 -0.1
v 1.8 2.2 -0.1
v 1.9 2.2 -0.1
v 0.1 2.2 -0.4
v 0.2 2.2 -0.4
v 1.4 2.2 -0.4
v 1.6 2.2 -0.4
v 1.8 2.2 -0.4
v 1.9 2.2 -0.4
v 0.1 2.2 -0.5
v 0.2 2.2 -0.5
v 1.8 2.2 -0.5
v 1.9 2.2 -0.5
v 1.6 2.3 0
v 1.8 2.3 0
v 0.2 2.3 -0.1
v 0.3 2.3 -0.1
v 1.2 2.3 -0.1
v 1.4 2.3 -0.1
v 1.6 2.3 -0.1
v 1.8 2.3 -0.1
v 0.2 2.3 -0.4
v 0.3 2.3 -0.4
v 1.2 2.3 -0.4
v 1.4 2.3 -0.4
v 1.6 2.3 -0.4
v 1.8 2.3 -0.4
v 1.6 2.3 -0.5
v 1.8 2.3 -0.5
v 0 2.4 0
v 0.1 2.4 0
v 0.3 2.4 0
v 0.4 2.4 0
v 1.4 2.4 0
v 1.6 2.4 0
v 0 2.4 -0.1
v 0.1 2.4 -0.1
v 0.3 2.4 -0.1
v 0.4 2.4 -0.1
v 1 2.4 -0.1
v 1.2 2.4 -0.1
v 1.4 2.4 -0.1
v 1.6 2.4 -0.1
v 0 2.4 -0.4
v 0.1 2.4 -0.4
v 0.3 2.4 -0.4
v 0.4 2.4 -0.4
v 1 2.4 -0.4
v 1.2 2.4 -0.4
v 1.4 2.4 -0.4
v 1.6 2.4 -0.4
v 0 2.4 -0.5
v 0.1 2.4 -0.5
v 0.3 2.4 -0.5
v 0.4 2.4 -0.5
v 1.4 2.4 -0.5
v 1.6 2.4 -0.5
v 0.1 2.5 0
v 0.2 2.5 0
v 0.6 2.5 0
v 0.7 2.5 0
v 1.2 2.5 0
v 1.4 2.5 0
v 0.1 2.5 -0.1
v 0.2 2.5 -0.1
v 0.4 2.5 -0.1
v 0.5 2.5 -0.1
v 0.6 2.5 -0.1
v 0.7 2.5 -0.1
v 0.8 2.5 -0.1
v 1 2.5 -0.1
v 1.2 2.5 -0.1
v 1.4 2.5 -0.1
v 0.1 2.5 -0.4
v 0.2 2.5 -0.4
v 0.4 2.5 -0.4
v 0.5 2.5 -0.4
v 0.6 2.5 -0.4
v 0.7 2.5 -0.4
v 0.8 2.5 -0.4
v 1 2.5 -0.4
v 1.2 2.5 -0.4
v 1.4 2.5 -0.4
v 0.1 2.5 -0.5
v 0.2 2.5 -0.5
v 0.6 2.5 -0.5
v 0.7 2.5 -0.5
v 1.2 2.5 -0.5
v 1.4 2.5 -0.5
v 0.2 2.6 0
v 0.3 2.6 0
v 1 2.6 0
v 1.2 2.6 0
v 0.2 2.6 -0.1
v 0.3 2.6 -0.1
v 1 2.6 -0.1
v 1.2 2.6 -0.1
v 0.2 2.6 -0.4
v 0.3 2.6 -0.4
v 1 2.6 -0.4
v 1.2 2.6 -0.4
v 0.2 2.6 -0.5
v 0.3 2.6 -0.5
v 1 2.6 -0.5
v 1.2 2.6 -0.5
v 0.3 2.7 0
v 0.4 2.7 0
v 0.8 2.7 0
v 1 2.7 0
v 0.3 2.7 -0.1
v 0.4 2.7 -0.1
v 0.8 2.7 -0.1
v 1 2.7 -0.1
v 0.3 2.7 -0.4
v 0.4 2.7 -0.4
v 0.8 2.7 -0.4
v 1 2.7 -0.4
v 0.3 2.7 -0.5
v 0.4 2.7 -0.5
v 0.8 2.7 -0.5
v 1 2.7 -0.5
v 0.4 2.8 0
v 0.5 2.8 0
v 0.8 2.8 0
v 0.4 2.8 -0.1
v 0.5 2.8 -0.1
v 0.8 2.8 -0.1
v 0.4 2.8 -0.4
v 0.5 2.8 -0.4
v 0.8 2.8 -0.4
v 0.4 2.8 -0.5
v 0.5 2.8 -0.5
v 0.8 2.8 -0.5

# faces
f 5/1/1 2/1/1 1/1/1
f 5/4/1 3/4/1 2/4/1
f 6/1/1 4/1/1 3/1/1
f 6/4/1 3/4/1 5/4/1
f 7/1/1 5/1/1 1/1/1
f 8/1/1 5/1/1 7/1/1
f 9/1/1 4/1/1 6/1/1
f 10/1/1 4/1/1 9/1/1
f 13/4/1 12/4/1 11/4/1
f 14/4/1 12/4/1 13/4/1
f 19/1/1 16/1/1 15/1/1
f 20/1/1 16/1/1 19/1/1
f 21/1/1 18/1/1 17/1/1
f 22/1/1 18/1/1 21/1/1
f 27/1/1 24/1/1 23/1/1
f 27/4/1 25/4/1 24/4/1
f 28/1/1 26/1/1 25/1/1
f 28/4/1 25/4/1 27/4/1
f 29/1/1 27/1/1 23/1/1
f 30/1/1 27/1/1 29/1/1
f 31/1/1 26/1/1 28/1/1
f 32/1/1 26/1/1 31/1/1
f 37/1/1 34/1/1 33/1/1
f 38/1/1 34/1/1 37/1/1
f 39/1/1 36/1/1 35/1/1
f 40/1/1 36/1/1 39/1/1
f 43/4/1 42/4/1 41/4/1
f 44/4/1 42/4/1 43/4/1
f 49/1/1 46/1/1 45/1/1
f 50/1/1 46/1/1 49/1/1
f 51/1/1 48/1/1 47/1/1
f 52/1/1 48/1/1 51/1/1
f 57/1/1 54/1/1 53/1/1
f 57/4/1 55/4/1 54/4/1
f 58/1/1 56/1/1 55/1/1
f 58/4/1 55/4/1 57/4/1
f 59/1/1 57/1/1 53/1/1
f 60/1/1 57/1/1 59/1/1
f 61/1/1 56/1/1 58/1/1
f 62/1/1 56/1/1 61/1/1
f 67/1/1 64/1/1 63/1/1
f 68/1/1 64/1/1 67/1/1
f 69/1/1 66/1/1 65/1/1
f 70/1/1 66/1/1 69/1/1
f 73/3/1 72/3/1 71/3/1
f 74/3/1 72/3/1 73/3/1
f 79/3/1 76/3/1 75/3/1
f 80/3/1 76/3/1 79/3/1
f 81/3/1 78/3/1 77/3/1
f 82/3/1 78/3/1 81/3/1
f 85/2/1 84/2/1 83/2/1
f 86/2/1 84/2/1 85/2/1
f 89/2/1 88/2/1 87/2/1
f 90/2/1 88/2/1 89/2/1
f 93/2/1 92/2/1 91/2/1
f 94/2/1 92/2/1 93/2/1
f 97/2/1 96/2/1 95/2/1
f 98/2/1 96/2/1 97/2/1
f 99/1/2 100/1/2 103/1/2
f 100/4/2 101/4/2 104/4/2
f 103/1/2 100/1/2 104/1/2
f 101/1/2 102/1/2 105/1/2
f 104/4/2 101/4/2 105/4/2
f 105/1/2 102/1/2 106/1/2
f 107/1/2 108/1/2 111/1/2
f 111/1/2 108/1/2 112/1/2
f 109/1/2 110/1/2 113/1/2
f 113/1/2 110/1/2 114/1/2
f 115/1/2 116/1/2 119/1/2
f 116/4/2 117/4/2 120/4/2
f 119/1/2 116/1/2 120/1/2
f 117/1/2 118/1/2 121/1/2
f 120/4/2 117/4/2 121/4/2
f 121/1/2 118/1/2 122/1/2
f 123/1/2 124/1/2 127/1/2
f 124/4/2 125/4/2 128/4/2
f 127/1/2 124/1/2 128/1/2
f 125/1/2 126/1/2 129/1/2
f 128/4/2 125/4/2 129/4/2
f 129/1/2 126/1/2 130/1/2
f 131/1/2 132/1/2 135/1/2
f 135/1/2 132/1/2 136/1/2
f 133/1/2 134/1/2 137/1/2
f 137/1/2 134/1/2 138/1/2
f 139/1/2 140/1/2 143/1/2
f 140/4/2 141/4/2 144/4/2
f 143/1/2 140/1/2 144/1/2
f 141/1/2 142/1/2 145/1/2
f 144/4/2 141/4/2 145/4/2
f 145/1/2 142/1/2 146/1/2
f 147/3/2 148/3/2 151/3/2
f 151/3/2 148/3/2 152/3/2
f 149/3/2 150/3/2 153/3/2
f 153/3/2 150/3/2 154/3/2
f 155/3/2 156/3/2 157/3/2
f 157/3/2 156/3/2 158/3/2
f 159/3/2 160/3/2 163/3/2
f 163/3/2 160/3/2 164/3/2
f 161/3/2 162/3/2 165/3/2
f 165/3/2 162/3/2 166/3/2
f 167/2/2 168/2/2 169/2/2
f 169/2/2 168/2/2 170/2/2
f 171/2/2 172/2/2 175/2/2
f 175/2/2 172/2/2 176/2/2
f 173/2/2 174/2/2 177/2/2
f 177/2/2 174/2/2 178/2/2
f 179/2/2 180/2/2 181/2/2
f 181/2/2 180/2/2 182/2/2
f 183/2/2 184/2/2 187/2/2
f 187/2/2 184/2/2 188/2/2
f 185/2/2 186/2/2 189/2/2
f 189/2/2 186/2/2 190/2/2
f 191/2/2 192/2/2 193/2/2
f 193/2/2 192/2/2 194/2/2
f 195/2/2 196/2/2 199/2/2
f 199/2/2 196/2/2 200/2/2
f 197/2/2 198/2/2 201/2/2
f 201/2/2 198/2/2 202/2/2
f 203/2/2 204/2/2 205/2/2
f 205/2/2 204/2/2 206/2/2
f 207/2/2 208/2/2 211/2/2
f 211/2/2 208/2/2 212/2/2
f 209/2/2 210/2/2 213/2/2
f 213/2/2 210/2/2 214/2/2
f 215/2/2 216/2/2 219/2/2
f 219/2/2 216/2/2 220/2/2
f 217/2/2 218/2/2 221/2/2
f 221/2/2 218/2/2 222/2/2
f 223/2/2 224/2/2 227/2/2
f 227/2/2 224/2/2 228/2/2
f 225/2/2 226/2/2 229/2/2
f 229/2/2 226/2/2 230/2/2
f 231/2/2 232/2/2 233/2/2
f 233/2/2 232/2/2 234/2/2
f 237/1/3 236/1/3 235/1/3
f 238/1/3 236/1/3 237/1/3
f 239/1/3 236/1/3 238/1/3
f 240/1/3 236/1/3 239/1/3
f 242/1/3 239/1/3 238/1/3
f 243/1/3 239/1/3 242/1/3
f 244/1/3 241/1/3 240/1/3
f 245/1/3 241/1/3 244/1/3
f 247/1/3 246/1/3 245/1/3
f 247/1/3 245/1/3 244/1/3
f 247/1/3 244/1/3 243/1/3
f 248/1/3 246/1/3 247/1/3
f 249/1/3 246/1/3 248/1/3
f 250/1/3 246/1/3 249/1/3
f 252/1/3 249/1/3 248/1/3
f 253/1/3 249/1/3 252/1/3
f 254/1/3 251/1/3 250/1/3
f 255/1/3 251/1/3 254/1/3
f 257/1/3 256/1/3 255/1/3
f 257/1/3 255/1/3 254/1/3
f 257/1/3 254/1/3 253/1/3
f 258/1/3 256/1/3 257/1/3
f 259/3/3 258/3/3 257/3/3
f 260/3/3 258/3/3 259/3/3
f 261/3/3 259/3/3 257/3/3
f 262/3/3 258/3/3 260/3/3
f 263/3/3 261/3/3 257/3/3
f 263/3/3 262/3/3 261/3/3
f 264/3/3 258/3/3 262/3/3
f 264/3/3 262/3/3 263/3/3
f 265/3/3 258/3/3 264/3/3
f 267/2/3 264/2/3 263/2/3
f 268/2/3 264/2/3 267/2/3
f 269/2/3 264/2/3 268/2/3
f 271/2/3 267/2/3 266/2/3
f 271/2/3 268/2/3 267/2/3
f 272/2/3 268/2/3 271/2/3
f 273/2/3 268/2/3 272/2/3
f 275/2/3 271/2/3 270/2/3
f 275/2/3 272/2/3 271/2/3
f 276/2/3 272/2/3 275/2/3
f 277/2/3 272/2/3 276/2/3
f 279/2/3 275/2/3 274/2/3
f 279/2/3 276/2/3 275/2/3
f 280/2/3 276/2/3 279/2/3
f 281/2/3 276/2/3 280/2/3
f 282/2/3 279/2/3 278/2/3
f 282/2/3 280/2/3 279/2/3
f 283/2/3 280/2/3 282/2/3
f 284/2/3 282/2/3 278/2/3
f 285/2/3 282/2/3 284/2/3
f 286/2/3 284/2/3 278/2/3
f 287/2/3 284/2/3 286/2/3
f 290/3/3 289/3/3 288/3/3
f 291/3/3 289/3/3 290/3/3
f 294/1/3 293/1/3 292/1/3
f 295/1/3 293/1/3 294/1/3
f 296/1/3 293/1/3 295/1/3
f 299/1/3 297/1/3 296/1/3
f 300/1/3 297/1/3 299/1/3
f 302/1/3 299/1/3 298/1/3
f 302/1/3 301/1/3 300/1/3
f 302/1/3 300/1/3 299/1/3
f 303/1/3 301/1/3 302/1/3
f 304/1/3 301/1/3 303/1/3
f 307/1/3 305/1/3 304/1/3
f 308/1/3 305/1/3 307/1/3
f 310/1/3 307/1/3 306/1/3
f 310/1/3 309/1/3 308/1/3
f 310/1/3 308/1/3 307/1/3
f 311/1/3 309/1/3 310/1/3
f 312/3/3 311/3/3 310/3/3
f 313/3/3 311/3/3 312/3/3
f 315/3/3 311/3/3 313/3/3
f 316/3/3 315/3/3 314/3/3
f 317/3/3 311/3/3 315/3/3
f 317/3/3 315/3/3 316/3/3
f 318/3/3 311/3/3 317/3/3
f 320/2/3 317/2/3 316/2/3
f 321/2/3 317/2/3 320/2/3
f 322/2/3 317/2/3 321/2/3
f 324/2/3 320/2/3 319/2/3
f 324/2/3 321/2/3 320/2/3
f 325/2/3 321/2/3 324/2/3
f 326/2/3 321/2/3 325/2/3
f 328/2/3 324/2/3 323/2/3
f 328/2/3 325/2/3 324/2/3
f 329/2/3 325/2/3 328/2/3
f 330/2/3 325/2/3 329/2/3
f 332/2/3 328/2/3 327/2/3
f 332/2/3 329/2/3 328/2/3
f 333/2/3 329/2/3 332/2/3
f 334/2/3 329/2/3 333/2/3
f 335/2/3 332/2/3 331/2/3
f 335/2/3 333/2/3 332/2/3
f 336/2/3 333/2/3 335/2/3
f 337/2/3 335/2/3 331/2/3
f 338/2/3 335/2/3 337/2/3
f 339/1/4 340/1/4 341/1/4
f 341/1/4 340/1/4 342/1/4
f 342/1/4 340/1/4 343/1/4
f 343/1/4 344/1/4 346/1/4
f 346/1/4 344/1/4 347/1/4
f 345/1/4 346/1/4 349/1/4
f 347/1/4 348/1/4 349/1/4
f 346/1/4 347/1/4 349/1/4
f 349/1/4 348/1/4 350/1/4
f 350/1/4 348/1/4 351/1/4
f 351/1/4 352/1/4 354/1/4
f 354/1/4 352/1/4 355/1/4
f 353/1/4 354/1/4 357/1/4
f 355/1/4 356/1/4 357/1/4
f 354/1/4 355/1/4 357/1/4
f 357/1/4 356/1/4 358/1/4
f 357/3/4 358/3/4 359/3/4
f 359/3/4 358/3/4 360/3/4
f 360/3/4 358/3/4 362/3/4
f 361/3/4 362/3/4 363/3/4
f 362/3/4 358/3/4 364/3/4
f 363/3/4 362/3/4 364/3/4
f 364/3/4 358/3/4 365/3/4
f 363/2/4 364/2/4 367/2/4
f 367/2/4 364/2/4 368/2/4
f 368/2/4 364/2/4 369/2/4
f 366/2/4 367/2/4 371/2/4
f 367/2/4 368/2/4 371/2/4
f 371/2/4 368/2/4 372/2/4
f 372/2/4 368/2/4 373/2/4
f 370/2/4 371/2/4 375/2/4
f 371/2/4 372/2/4 375/2/4
f 375/2/4 372/2/4 376/2/4
f 376/2/4 372/2/4 377/2/4
f 374/2/4 375/2/4 379/2/4
f 375/2/4 376/2/4 379/2/4
f 379/2/4 376/2/4 380/2/4
f 380/2/4 376/2/4 381/2/4
f 378/2/4 379/2/4 382/2/4
f 379/2/4 380/2/4 382/2/4
f 382/2/4 380/2/4 383/2/4
f 378/2/4 382/2/4 384/2/4
f 384/2/4 382/2/4 385/2/4
f 386/3/4 387/3/4 388/3/4
f 388/3/4 387/3/4 389/3/4
f 390/1/4 391/1/4 392/1/4
f 392/1/4 391/1/4 393/1/4
f 393/1/4 391/1/4 394/1/4
f 394/1/4 391/1/4 395/1/4
f 393/1/4 394/1/4 397/1/4
f 397/1/4 394/1/4 398/1/4
f 395/1/4 396/1/4 399/1/4
f 399/1/4 396/1/4 400/1/4
f 400/1/4 401/1/4 402/1/4
f 399/1/4 400/1/4 402/1/4
f 398/1/4 399/1/4 402/1/4
f 402/1/4 401/1/4 403/1/4
f 403/1/4 401/1/4 404/1/4
f 404/1/4 401/1/4 405/1/4
f 403/1/4 404/1/4 407/1/4
f 407/1/4 404/1/4 408/1/4
f 405/1/4 406/1/4 409/1/4
f 409/1/4 406/1/4 410/1/4
f 410/1/4 411/1/4 412/1/4
f 409/1/4 410/1/4 412/1/4
f 408/1/4 409/1/4 412/1/4
f 412/1/4 411/1/4 413/1/4
f 412/3/4 413/3/4 414/3/4
f 414/3/4 413/3/4 415/3/4
f 412/3/4 414/3/4 416/3/4
f 415/3/4 413/3/4 417/3/4
f 412/3/4 416/3/4 418/3/4
f 416/3/4 417/3/4 418/3/4
f 417/3/4 413/3/4 419/3/4
f 418/3/4 417/3/4 419/3/4
f 419/3/4 413/3/4 420/3/4
f 418/2/4 419/2/4 422/2/4
f 422/2/4 419/2/4 423/2/4
f 423/2/4 419/2/4 424/2/4
f 421/2/4 422/2/4 426/2/4
f 422/2/4 423/2/4 426/2/4
f 426/2/4 423/2/4 427/2/4
f 427/2/4 423/2/4 428/2/4
f 425/2/4 426/2/4 430/2/4
f 426/2/4 427/2/4 430/2/4
f 430/2/4 427/2/4 431/2/4
f 431/2/4 427/2/4 432/2/4
f 429/2/4 430/2/4 434/2/4
f 430/2/4 431/2/4 434/2/4
f 434/2/4 431/2/4 435/2/4
f 435/2/4 431/2/4 436/2/4
f 433/2/4 434/2/4 437/2/4
f 434/2/4 435/2/4 437/2/4
f 437/2/4 435/2/4 438/2/4
f 433/2/4 437/2/4 439/2/4
f 439/2/4 437/2/4 440/2/4
f 433/2/4 439/2/4 441/2/4
f 441/2/4 439/2/4 442/2/4
f 447/1/5 444/1/5 443/1/5
f 448/1/5 444/1/5 447/1/5
f 451/3/5 450/3/5 449/3/5
f 452/3/5 450/3/5 451/3/5
f 453/4/5 448/4/5 447/4/5
f 454/4/5 448/4/5 453/4/5
f 455/1/5 454/1/5 453/1/5
f 456/1/5 454/1/5 455/1/5
f 457/2/5 446/2/5 445/2/5
f 458/2/5 446/2/5 457/2/5
f 463/1/5 460/1/5 459/1/5
f 464/1/5 460/1/5 463/1/5
f 465/4/5 464/4/5 463/4/5
f 466/4/5 464/4/5 465/4/5
f 467/1/5 466/1/5 465/1/5
f 468/1/5 466/1/5 467/1/5
f 469/2/5 462/2/5 461/2/5
f 470/2/5 462/2/5 469/2/5
f 475/1/5 472/1/5 471/1/5
f 476/1/5 472/1/5 475/1/5
f 477/4/5 476/4/5 475/4/5
f 478/4/5 476/4/5 477/4/5
f 479/1/5 478/1/5 477/1/5
f 480/1/5 478/1/5 479/1/5
f 481/2/5 474/2/5 473/2/5
f 482/2/5 474/2/5 481/2/5
f 487/1/5 484/1/5 483/1/5
f 488/1/5 484/1/5 487/1/5
f 489/4/5 488/4/5 487/4/5
f 490/4/5 488/4/5 489/4/5
f 491/1/5 490/1/5 489/1/5
f 492/1/5 490/1/5 491/1/5
f 493/2/5 486/2/5 485/2/5
f 494/2/5 486/2/5 493/2/5
f 501/1/5 496/1/5 495/1/5
f 502/1/5 496/1/5 501/1/5
f 503/1/5 498/1/5 497/1/5
f 504/3/5 499/3/5 498/3/5
f 504/1/5 498/1/5 503/1/5
f 505/2/5 500/2/5 499/2/5
f 505/3/5 499/3/5 504/3/5
f 506/4/5 504/4/5 503/4/5
f 506/4/5 505/4/5 504/4/5
f 507/4/5 505/4/5 506/4/5
f 508/4/5 506/4/5 503/4/5
f 509/4/5 505/4/5 507/4/5
f 512/4/5 508/4/5 503/4/5
f 512/4/5 509/4/5 508/4/5
f 513/4/5 509/4/5 512/4/5
f 514/2/5 500/2/5 505/2/5
f 514/4/5 509/4/5 513/4/5
f 514/4/5 505/4/5 509/4/5
f 515/1/5 511/1/5 510/1/5
f 516/1/5 511/1/5 515/1/5
f 517/1/5 513/1/5 512/1/5
f 518/3/5 514/3/5 513/3/5
f 518/1/5 513/1/5 517/1/5
f 519/2/5 500/2/5 514/2/5
f 519/3/5 514/3/5 518/3/5
f 520/2/5 500/2/5 519/2/5
f 523/1/5 522/1/5 521/1/5
f 524/1/5 522/1/5 523/1/5
f 527/1/5 526/1/5 525/1/5
f 528/1/5 526/1/5 527/1/5
f 531/3/5 530/3/5 529/3/5
f 532/3/5 530/3/5 531/3/5
f 535/3/5 534/3/5 533/3/5
f 536/3/5 534/3/5 535/3/5
f 537/2/6 538/2/6 542/2/6
f 539/4/6 540/4/6 543/4/6
f 543/4/6 540/4/6 544/4/6
f 541/2/6 542/2/6 545/2/6
f 542/2/6 538/2/6 546/2/6
f 545/2/6 542/2/6 546/2/6
f 546/2/6 538/2/6 547/2/6
f 547/2/6 538/2/6 548/2/6
f 549/1/6 550/1/6 553/1/6
f 553/1/6 550/1/6 554/1/6
f 551/2/6 552/2/6 557/2/6
f 557/2/6 552/2/6 558/2/6
f 553/4/6 554/4/6 559/4/6
f 559/4/6 554/4/6 560/4/6
f 555/2/6 556/2/6 561/2/6
f 561/2/6 556/2/6 562/2/6
f 559/1/6 560/1/6 565/1/6
f 565/1/6 560/1/6 566/1/6
f 563/2/6 564/2/6 567/2/6
f 567/2/6 564/2/6 568/2/6
f 569/2/6 570/2/6 575/2/6
f 575/2/6 570/2/6 576/2/6
f 571/4/6 572/4/6 577/4/6
f 577/4/6 572/4/6 578/4/6
f 573/2/6 574/2/6 579/2/6
f 579/2/6 574/2/6 580/2/6
f 581/2/6 582/2/6 583/2/6
f 583/2/6 582/2/6 584/2/6
f 585/1/6 586/1/6 591/1/6
f 591/1/6 586/1/6 592/1/6
f 587/1/6 588/1/6 593/1/6
f 593/1/6 588/1/6 594/1/6
f 589/2/6 590/2/6 597/2/6
f 597/2/6 590/2/6 598/2/6
f 593/4/6 594/4/6 601/4/6
f 601/4/6 594/4/6 602/4/6
f 595/2/6 596/2/6 603/2/6
f 603/2/6 596/2/6 604/2/6
f 599/1/6 600/1/6 607/1/6
f 607/1/6 600/1/6 608/1/6
f 601/1/6 602/1/6 609/1/6
f 609/1/6 602/1/6 610/1/6
f 605/2/6 606/2/6 611/2/6
f 611/2/6 606/2/6 612/2/6
f 613/1/6 614/1/6 619/1/6
f 619/1/6 614/1/6 620/1/6
f 615/3/6 616/3/6 623/3/6
f 623/3/6 616/3/6 624/3/6
f 617/2/6 618/2/6 627/2/6
f 627/2/6 618/2/6 628/2/6
f 621/4/6 622/4/6 631/4/6
f 622/4/6 623/4/6 631/4/6
f 623/4/6 624/4/6 631/4/6
f 624/4/6 625/4/6 631/4/6
f 631/4/6 625/4/6 632/4/6
f 632/4/6 625/4/6 633/4/6
f 633/4/6 625/4/6 634/4/6
f 625/2/6 626/2/6 635/2/6
f 634/4/6 625/4/6 635/4/6
f 635/2/6 626/2/6 636/2/6
f 629/1/6 630/1/6 639/1/6
f 639/1/6 630/1/6 640/1/6
f 633/3/6 634/3/6 641/3/6
f 641/3/6 634/3/6 642/3/6
f 637/2/6 638/2/6 643/2/6
f 643/2/6 638/2/6 644/2/6
f 645/1/6 646/1/6 649/1/6
f 649/1/6 646/1/6 650/1/6
f 647/2/6 648/2/6 651/2/6
f 651/2/6 648/2/6 652/2/6
f 653/1/6 654/1/6 657/1/6
f 657/1/6 654/1/6 658/1/6
f 655/2/6 656/2/6 659/2/6
f 659/2/6 656/2/6 660/2/6
f 661/1/6 662/1/6 665/1/6
f 665/1/6 662/1/6 666/1/6
f 663/2/6 664/2/6 667/2/6
f 667/2/6 664/2/6 668/2/6
f 669/1/6 670/1/6 673/1/6
f 673/1/6 670/1/6 674/1/6
f 671/2/6 672/2/6 675/2/6
f 675/2/6 672/2/6 676/2/6
f 677/1/6 678/1/6 680/1/6
f 678/3/6 679/3/6 681/3/6
f 680/1/6 678/1/6 681/1/6
f 681/3/6 679/3/6 682/3/6
f 683/1/6 684/1/6 686/1/6
f 684/3/6 685/3/6 687/3/6
f 686/1/6 684/1/6 687/1/6
f 687/3/6 685/3/6 688/3/6
