# MagicaVoxel @ Ephtracy

# group
o 

# material
mtllib Yuugu_buranko.mtl
usemtl palette

# normals
vn -1 0 0
vn 1 0 0
vn 0 0 1
vn 0 0 -1
vn 0 -1 0
vn 0 1 0

# texcoords
vt 0.326172 0.5
vt 0.751953 0.5
vt 0.845703 0.5
vt 0.974609 0.5

# verts
v 0.2 2 -0.2
v 0.2 2 -0.3
v 0.2 2 -1.2
v 0.2 2 -1.3
v 0.2 2.2 -0.2
v 0.2 2.2 -0.3
v 0.2 2.2 -0.4
v 0.2 2.2 -1.1
v 0.2 2.2 -1.2
v 0.2 2.2 -1.3
v 0.2 2.4 -0.3
v 0.2 2.4 -0.4
v 0.2 2.4 -0.5
v 0.2 2.4 -1
v 0.2 2.4 -1.1
v 0.2 2.4 -1.2
v 0.2 2.6 -0.4
v 0.2 2.6 -0.5
v 0.2 2.6 -0.6
v 0.2 2.6 -0.9
v 0.2 2.6 -1
v 0.2 2.6 -1.1
v 0.2 2.8 -0.5
v 0.2 2.8 -0.6
v 0.2 2.8 -0.7
v 0.2 2.8 -0.8
v 0.2 2.8 -0.9
v 0.2 2.8 -1
v 0.2 2.9 -0.6
v 0.2 2.9 -0.7
v 0.2 2.9 -0.8
v 0.2 2.9 -0.9
v 0.2 3 -0.7
v 0.2 3 -0.8
v 0.5 2.1 -0.7
v 0.5 2.1 -0.8
v 0.5 2.2 -0.7
v 0.5 2.2 -0.8
v 0.5 2.9 -0.7
v 0.5 2.9 -0.8
v 0.8 2.2 -0.7
v 0.8 2.2 -0.8
v 0.8 2.9 -0.7
v 0.8 2.9 -0.8
v 1.1 2.1 -0.7
v 1.1 2.1 -0.8
v 1.1 2.2 -0.7
v 1.1 2.2 -0.8
v 1.1 2.9 -0.7
v 1.1 2.9 -0.8
v 1.4 2.2 -0.7
v 1.4 2.2 -0.8
v 1.4 2.9 -0.7
v 1.4 2.9 -0.8
v 1.7 2 -0.2
v 1.7 2 -0.3
v 1.7 2 -1.2
v 1.7 2 -1.3
v 1.7 2.2 -0.2
v 1.7 2.2 -0.3
v 1.7 2.2 -0.4
v 1.7 2.2 -1.1
v 1.7 2.2 -1.2
v 1.7 2.2 -1.3
v 1.7 2.4 -0.3
v 1.7 2.4 -0.4
v 1.7 2.4 -0.5
v 1.7 2.4 -1
v 1.7 2.4 -1.1
v 1.7 2.4 -1.2
v 1.7 2.6 -0.4
v 1.7 2.6 -0.5
v 1.7 2.6 -0.6
v 1.7 2.6 -0.9
v 1.7 2.6 -1
v 1.7 2.6 -1.1
v 1.7 2.8 -0.5
v 1.7 2.8 -0.6
v 1.7 2.8 -0.7
v 1.7 2.8 -0.8
v 1.7 2.8 -0.9
v 1.7 2.8 -1
v 1.7 2.9 -0.6
v 1.7 2.9 -0.7
v 1.7 2.9 -0.8
v 1.7 2.9 -0.9
v 0.3 2 -0.2
v 0.3 2 -0.3
v 0.3 2 -1.2
v 0.3 2 -1.3
v 0.3 2.2 -0.2
v 0.3 2.2 -0.3
v 0.3 2.2 -0.4
v 0.3 2.2 -1.1
v 0.3 2.2 -1.2
v 0.3 2.2 -1.3
v 0.3 2.4 -0.3
v 0.3 2.4 -0.4
v 0.3 2.4 -0.5
v 0.3 2.4 -1
v 0.3 2.4 -1.1
v 0.3 2.4 -1.2
v 0.3 2.6 -0.4
v 0.3 2.6 -0.5
v 0.3 2.6 -0.6
v 0.3 2.6 -0.9
v 0.3 2.6 -1
v 0.3 2.6 -1.1
v 0.3 2.8 -0.5
v 0.3 2.8 -0.6
v 0.3 2.8 -0.7
v 0.3 2.8 -0.8
v 0.3 2.8 -0.9
v 0.3 2.8 -1
v 0.3 2.9 -0.6
v 0.3 2.9 -0.7
v 0.3 2.9 -0.8
v 0.3 2.9 -0.9
v 0.6 2.2 -0.7
v 0.6 2.2 -0.8
v 0.6 2.9 -0.7
v 0.6 2.9 -0.8
v 0.9 2.1 -0.7
v 0.9 2.1 -0.8
v 0.9 2.2 -0.7
v 0.9 2.2 -0.8
v 0.9 2.9 -0.7
v 0.9 2.9 -0.8
v 1.2 2.2 -0.7
v 1.2 2.2 -0.8
v 1.2 2.9 -0.7
v 1.2 2.9 -0.8
v 1.5 2.1 -0.7
v 1.5 2.1 -0.8
v 1.5 2.2 -0.7
v 1.5 2.2 -0.8
v 1.5 2.9 -0.7
v 1.5 2.9 -0.8
v 1.8 2 -0.2
v 1.8 2 -0.3
v 1.8 2 -1.2
v 1.8 2 -1.3
v 1.8 2.2 -0.2
v 1.8 2.2 -0.3
v 1.8 2.2 -0.4
v 1.8 2.2 -1.1
v 1.8 2.2 -1.2
v 1.8 2.2 -1.3
v 1.8 2.4 -0.3
v 1.8 2.4 -0.4
v 1.8 2.4 -0.5
v 1.8 2.4 -1
v 1.8 2.4 -1.1
v 1.8 2.4 -1.2
v 1.8 2.6 -0.4
v 1.8 2.6 -0.5
v 1.8 2.6 -0.6
v 1.8 2.6 -0.9
v 1.8 2.6 -1
v 1.8 2.6 -1.1
v 1.8 2.8 -0.5
v 1.8 2.8 -0.6
v 1.8 2.8 -0.7
v 1.8 2.8 -0.8
v 1.8 2.8 -0.9
v 1.8 2.8 -1
v 1.8 2.9 -0.6
v 1.8 2.9 -0.7
v 1.8 2.9 -0.8
v 1.8 2.9 -0.9
v 1.8 3 -0.7
v 1.8 3 -0.8
v 0.2 2 -0.2
v 0.2 2.2 -0.2
v 0.3 2 -0.2
v 0.3 2.2 -0.2
v 1.7 2 -0.2
v 1.7 2.2 -0.2
v 1.8 2 -0.2
v 1.8 2.2 -0.2
v 0.2 2.2 -0.3
v 0.2 2.4 -0.3
v 0.3 2.2 -0.3
v 0.3 2.4 -0.3
v 1.7 2.2 -0.3
v 1.7 2.4 -0.3
v 1.8 2.2 -0.3
v 1.8 2.4 -0.3
v 0.2 2.4 -0.4
v 0.2 2.6 -0.4
v 0.3 2.4 -0.4
v 0.3 2.6 -0.4
v 1.7 2.4 -0.4
v 1.7 2.6 -0.4
v 1.8 2.4 -0.4
v 1.8 2.6 -0.4
v 0.2 2.6 -0.5
v 0.2 2.8 -0.5
v 0.3 2.6 -0.5
v 0.3 2.8 -0.5
v 1.7 2.6 -0.5
v 1.7 2.8 -0.5
v 1.8 2.6 -0.5
v 1.8 2.8 -0.5
v 0.2 2.8 -0.6
v 0.2 2.9 -0.6
v 0.3 2.8 -0.6
v 0.3 2.9 -0.6
v 1.7 2.8 -0.6
v 1.7 2.9 -0.6
v 1.8 2.8 -0.6
v 1.8 2.9 -0.6
v 0.2 2.9 -0.7
v 0.2 3 -0.7
v 0.3 2.9 -0.7
v 0.3 3 -0.7
v 0.5 2.1 -0.7
v 0.5 2.2 -0.7
v 0.5 2.9 -0.7
v 0.5 3 -0.7
v 0.6 2.2 -0.7
v 0.6 2.9 -0.7
v 0.6 3 -0.7
v 0.8 2.2 -0.7
v 0.8 2.9 -0.7
v 0.8 3 -0.7
v 0.9 2.1 -0.7
v 0.9 2.2 -0.7
v 0.9 2.9 -0.7
v 0.9 3 -0.7
v 1.1 2.1 -0.7
v 1.1 2.2 -0.7
v 1.1 2.9 -0.7
v 1.1 3 -0.7
v 1.2 2.2 -0.7
v 1.2 2.9 -0.7
v 1.2 3 -0.7
v 1.4 2.2 -0.7
v 1.4 2.9 -0.7
v 1.4 3 -0.7
v 1.5 2.1 -0.7
v 1.5 2.2 -0.7
v 1.5 2.9 -0.7
v 1.5 3 -0.7
v 1.7 2.9 -0.7
v 1.7 3 -0.7
v 1.8 2.9 -0.7
v 1.8 3 -0.7
v 0.2 2.8 -0.8
v 0.2 2.9 -0.8
v 0.3 2.8 -0.8
v 0.3 2.9 -0.8
v 1.7 2.8 -0.8
v 1.7 2.9 -0.8
v 1.8 2.8 -0.8
v 1.8 2.9 -0.8
v 0.2 2.6 -0.9
v 0.2 2.8 -0.9
v 0.3 2.6 -0.9
v 0.3 2.8 -0.9
v 1.7 2.6 -0.9
v 1.7 2.8 -0.9
v 1.8 2.6 -0.9
v 1.8 2.8 -0.9
v 0.2 2.4 -1
v 0.2 2.6 -1
v 0.3 2.4 -1
v 0.3 2.6 -1
v 1.7 2.4 -1
v 1.7 2.6 -1
v 1.8 2.4 -1
v 1.8 2.6 -1
v 0.2 2.2 -1.1
v 0.2 2.4 -1.1
v 0.3 2.2 -1.1
v 0.3 2.4 -1.1
v 1.7 2.2 -1.1
v 1.7 2.4 -1.1
v 1.8 2.2 -1.1
v 1.8 2.4 -1.1
v 0.2 2 -1.2
v 0.2 2.2 -1.2
v 0.3 2 -1.2
v 0.3 2.2 -1.2
v 1.7 2 -1.2
v 1.7 2.2 -1.2
v 1.8 2 -1.2
v 1.8 2.2 -1.2
v 0.2 2 -0.3
v 0.2 2.2 -0.3
v 0.3 2 -0.3
v 0.3 2.2 -0.3
v 1.7 2 -0.3
v 1.7 2.2 -0.3
v 1.8 2 -0.3
v 1.8 2.2 -0.3
v 0.2 2.2 -0.4
v 0.2 2.4 -0.4
v 0.3 2.2 -0.4
v 0.3 2.4 -0.4
v 1.7 2.2 -0.4
v 1.7 2.4 -0.4
v 1.8 2.2 -0.4
v 1.8 2.4 -0.4
v 0.2 2.4 -0.5
v 0.2 2.6 -0.5
v 0.3 2.4 -0.5
v 0.3 2.6 -0.5
v 1.7 2.4 -0.5
v 1.7 2.6 -0.5
v 1.8 2.4 -0.5
v 1.8 2.6 -0.5
v 0.2 2.6 -0.6
v 0.2 2.8 -0.6
v 0.3 2.6 -0.6
v 0.3 2.8 -0.6
v 1.7 2.6 -0.6
v 1.7 2.8 -0.6
v 1.8 2.6 -0.6
v 1.8 2.8 -0.6
v 0.2 2.8 -0.7
v 0.2 2.9 -0.7
v 0.3 2.8 -0.7
v 0.3 2.9 -0.7
v 1.7 2.8 -0.7
v 1.7 2.9 -0.7
v 1.8 2.8 -0.7
v 1.8 2.9 -0.7
v 0.2 2.9 -0.8
v 0.2 3 -0.8
v 0.3 2.9 -0.8
v 0.3 3 -0.8
v 0.5 2.1 -0.8
v 0.5 2.2 -0.8
v 0.5 2.9 -0.8
v 0.5 3 -0.8
v 0.6 2.2 -0.8
v 0.6 2.9 -0.8
v 0.6 3 -0.8
v 0.8 2.2 -0.8
v 0.8 2.9 -0.8
v 0.8 3 -0.8
v 0.9 2.1 -0.8
v 0.9 2.2 -0.8
v 0.9 2.9 -0.8
v 0.9 3 -0.8
v 1.1 2.1 -0.8
v 1.1 2.2 -0.8
v 1.1 2.9 -0.8
v 1.1 3 -0.8
v 1.2 2.2 -0.8
v 1.2 2.9 -0.8
v 1.2 3 -0.8
v 1.4 2.2 -0.8
v 1.4 2.9 -0.8
v 1.4 3 -0.8
v 1.5 2.1 -0.8
v 1.5 2.2 -0.8
v 1.5 2.9 -0.8
v 1.5 3 -0.8
v 1.7 2.9 -0.8
v 1.7 3 -0.8
v 1.8 2.9 -0.8
v 1.8 3 -0.8
v 0.2 2.8 -0.9
v 0.2 2.9 -0.9
v 0.3 2.8 -0.9
v 0.3 2.9 -0.9
v 1.7 2.8 -0.9
v 1.7 2.9 -0.9
v 1.8 2.8 -0.9
v 1.8 2.9 -0.9
v 0.2 2.6 -1
v 0.2 2.8 -1
v 0.3 2.6 -1
v 0.3 2.8 -1
v 1.7 2.6 -1
v 1.7 2.8 -1
v 1.8 2.6 -1
v 1.8 2.8 -1
v 0.2 2.4 -1.1
v 0.2 2.6 -1.1
v 0.3 2.4 -1.1
v 0.3 2.6 -1.1
v 1.7 2.4 -1.1
v 1.7 2.6 -1.1
v 1.8 2.4 -1.1
v 1.8 2.6 -1.1
v 0.2 2.2 -1.2
v 0.2 2.4 -1.2
v 0.3 2.2 -1.2
v 0.3 2.4 -1.2
v 1.7 2.2 -1.2
v 1.7 2.4 -1.2
v 1.8 2.2 -1.2
v 1.8 2.4 -1.2
v 0.2 2 -1.3
v 0.2 2.2 -1.3
v 0.3 2 -1.3
v 0.3 2.2 -1.3
v 1.7 2 -1.3
v 1.7 2.2 -1.3
v 1.8 2 -1.3
v 1.8 2.2 -1.3
v 0.2 2 -0.2
v 0.3 2 -0.2
v 1.7 2 -0.2
v 1.8 2 -0.2
v 0.2 2 -0.3
v 0.3 2 -0.3
v 1.7 2 -0.3
v 1.8 2 -0.3
v 0.2 2 -1.2
v 0.3 2 -1.2
v 1.7 2 -1.2
v 1.8 2 -1.2
v 0.2 2 -1.3
v 0.3 2 -1.3
v 1.7 2 -1.3
v 1.8 2 -1.3
v 0.5 2.1 -0.7
v 0.9 2.1 -0.7
v 1.1 2.1 -0.7
v 1.5 2.1 -0.7
v 0.5 2.1 -0.8
v 0.9 2.1 -0.8
v 1.1 2.1 -0.8
v 1.5 2.1 -0.8
v 0.2 2.2 -0.3
v 0.3 2.2 -0.3
v 1.7 2.2 -0.3
v 1.8 2.2 -0.3
v 0.2 2.2 -0.4
v 0.3 2.2 -0.4
v 1.7 2.2 -0.4
v 1.8 2.2 -0.4
v 0.2 2.2 -1.1
v 0.3 2.2 -1.1
v 1.7 2.2 -1.1
v 1.8 2.2 -1.1
v 0.2 2.2 -1.2
v 0.3 2.2 -1.2
v 1.7 2.2 -1.2
v 1.8 2.2 -1.2
v 0.2 2.4 -0.4
v 0.3 2.4 -0.4
v 1.7 2.4 -0.4
v 1.8 2.4 -0.4
v 0.2 2.4 -0.5
v 0.3 2.4 -0.5
v 1.7 2.4 -0.5
v 1.8 2.4 -0.5
v 0.2 2.4 -1
v 0.3 2.4 -1
v 1.7 2.4 -1
v 1.8 2.4 -1
v 0.2 2.4 -1.1
v 0.3 2.4 -1.1
v 1.7 2.4 -1.1
v 1.8 2.4 -1.1
v 0.2 2.6 -0.5
v 0.3 2.6 -0.5
v 1.7 2.6 -0.5
v 1.8 2.6 -0.5
v 0.2 2.6 -0.6
v 0.3 2.6 -0.6
v 1.7 2.6 -0.6
v 1.8 2.6 -0.6
v 0.2 2.6 -0.9
v 0.3 2.6 -0.9
v 1.7 2.6 -0.9
v 1.8 2.6 -0.9
v 0.2 2.6 -1
v 0.3 2.6 -1
v 1.7 2.6 -1
v 1.8 2.6 -1
v 0.2 2.8 -0.6
v 0.3 2.8 -0.6
v 1.7 2.8 -0.6
v 1.8 2.8 -0.6
v 0.2 2.8 -0.7
v 0.3 2.8 -0.7
v 1.7 2.8 -0.7
v 1.8 2.8 -0.7
v 0.2 2.8 -0.8
v 0.3 2.8 -0.8
v 1.7 2.8 -0.8
v 1.8 2.8 -0.8
v 0.2 2.8 -0.9
v 0.3 2.8 -0.9
v 1.7 2.8 -0.9
v 1.8 2.8 -0.9
v 0.2 2.9 -0.7
v 0.3 2.9 -0.7
v 0.5 2.9 -0.7
v 0.6 2.9 -0.7
v 0.8 2.9 -0.7
v 0.9 2.9 -0.7
v 1.1 2.9 -0.7
v 1.2 2.9 -0.7
v 1.4 2.9 -0.7
v 1.5 2.9 -0.7
v 1.7 2.9 -0.7
v 1.8 2.9 -0.7
v 0.2 2.9 -0.8
v 0.3 2.9 -0.8
v 0.5 2.9 -0.8
v 0.6 2.9 -0.8
v 0.8 2.9 -0.8
v 0.9 2.9 -0.8
v 1.1 2.9 -0.8
v 1.2 2.9 -0.8
v 1.4 2.9 -0.8
v 1.5 2.9 -0.8
v 1.7 2.9 -0.8
v 1.8 2.9 -0.8
v 0.2 2.2 -0.2
v 0.3 2.2 -0.2
v 1.7 2.2 -0.2
v 1.8 2.2 -0.2
v 0.2 2.2 -0.3
v 0.3 2.2 -0.3
v 1.7 2.2 -0.3
v 1.8 2.2 -0.3
v 0.6 2.2 -0.7
v 0.8 2.2 -0.7
v 1.2 2.2 -0.7
v 1.4 2.2 -0.7
v 0.6 2.2 -0.8
v 0.8 2.2 -0.8
v 1.2 2.2 -0.8
v 1.4 2.2 -0.8
v 0.2 2.2 -1.2
v 0.3 2.2 -1.2
v 1.7 2.2 -1.2
v 1.8 2.2 -1.2
v 0.2 2.2 -1.3
v 0.3 2.2 -1.3
v 1.7 2.2 -1.3
v 1.8 2.2 -1.3
v 0.2 2.4 -0.3
v 0.3 2.4 -0.3
v 1.7 2.4 -0.3
v 1.8 2.4 -0.3
v 0.2 2.4 -0.4
v 0.3 2.4 -0.4
v 1.7 2.4 -0.4
v 1.8 2.4 -0.4
v 0.2 2.4 -1.1
v 0.3 2.4 -1.1
v 1.7 2.4 -1.1
v 1.8 2.4 -1.1
v 0.2 2.4 -1.2
v 0.3 2.4 -1.2
v 1.7 2.4 -1.2
v 1.8 2.4 -1.2
v 0.2 2.6 -0.4
v 0.3 2.6 -0.4
v 1.7 2.6 -0.4
v 1.8 2.6 -0.4
v 0.2 2.6 -0.5
v 0.3 2.6 -0.5
v 1.7 2.6 -0.5
v 1.8 2.6 -0.5
v 0.2 2.6 -1
v 0.3 2.6 -1
v 1.7 2.6 -1
v 1.8 2.6 -1
v 0.2 2.6 -1.1
v 0.3 2.6 -1.1
v 1.7 2.6 -1.1
v 1.8 2.6 -1.1
v 0.2 2.8 -0.5
v 0.3 2.8 -0.5
v 1.7 2.8 -0.5
v 1.8 2.8 -0.5
v 0.2 2.8 -0.6
v 0.3 2.8 -0.6
v 1.7 2.8 -0.6
v 1.8 2.8 -0.6
v 0.2 2.8 -0.9
v 0.3 2.8 -0.9
v 1.7 2.8 -0.9
v 1.8 2.8 -0.9
v 0.2 2.8 -1
v 0.3 2.8 -1
v 1.7 2.8 -1
v 1.8 2.8 -1
v 0.2 2.9 -0.6
v 0.3 2.9 -0.6
v 1.7 2.9 -0.6
v 1.8 2.9 -0.6
v 0.2 2.9 -0.7
v 0.3 2.9 -0.7
v 1.7 2.9 -0.7
v 1.8 2.9 -0.7
v 0.2 2.9 -0.8
v 0.3 2.9 -0.8
v 1.7 2.9 -0.8
v 1.8 2.9 -0.8
v 0.2 2.9 -0.9
v 0.3 2.9 -0.9
v 1.7 2.9 -0.9
v 1.8 2.9 -0.9
v 0.2 3 -0.7
v 0.3 3 -0.7
v 0.5 3 -0.7
v 0.6 3 -0.7
v 0.8 3 -0.7
v 0.9 3 -0.7
v 1.1 3 -0.7
v 1.2 3 -0.7
v 1.4 3 -0.7
v 1.5 3 -0.7
v 1.7 3 -0.7
v 1.8 3 -0.7
v 0.2 3 -0.8
v 0.3 3 -0.8
v 0.5 3 -0.8
v 0.6 3 -0.8
v 0.8 3 -0.8
v 0.9 3 -0.8
v 1.1 3 -0.8
v 1.2 3 -0.8
v 1.4 3 -0.8
v 1.5 3 -0.8
v 1.7 3 -0.8
v 1.8 3 -0.8

# faces
f 5/2/1 2/2/1 1/2/1
f 6/2/1 2/2/1 5/2/1
f 9/2/1 4/2/1 3/2/1
f 10/2/1 4/2/1 9/2/1
f 11/2/1 7/2/1 6/2/1
f 12/2/1 7/2/1 11/2/1
f 15/2/1 9/2/1 8/2/1
f 16/2/1 9/2/1 15/2/1
f 17/2/1 13/2/1 12/2/1
f 18/2/1 13/2/1 17/2/1
f 21/2/1 15/2/1 14/2/1
f 22/2/1 15/2/1 21/2/1
f 23/2/1 19/2/1 18/2/1
f 24/2/1 19/2/1 23/2/1
f 27/2/1 21/2/1 20/2/1
f 28/2/1 21/2/1 27/2/1
f 29/2/1 25/2/1 24/2/1
f 30/2/1 25/2/1 29/2/1
f 31/2/1 27/2/1 26/2/1
f 32/2/1 27/2/1 31/2/1
f 33/3/1 31/3/1 30/3/1
f 34/3/1 31/3/1 33/3/1
f 37/1/1 36/1/1 35/1/1
f 38/1/1 36/1/1 37/1/1
f 39/4/1 38/4/1 37/4/1
f 40/4/1 38/4/1 39/4/1
f 43/4/1 42/4/1 41/4/1
f 44/4/1 42/4/1 43/4/1
f 47/1/1 46/1/1 45/1/1
f 48/1/1 46/1/1 47/1/1
f 49/4/1 48/4/1 47/4/1
f 50/4/1 48/4/1 49/4/1
f 53/4/1 52/4/1 51/4/1
f 54/4/1 52/4/1 53/4/1
f 59/2/1 56/2/1 55/2/1
f 60/2/1 56/2/1 59/2/1
f 63/2/1 58/2/1 57/2/1
f 64/2/1 58/2/1 63/2/1
f 65/2/1 61/2/1 60/2/1
f 66/2/1 61/2/1 65/2/1
f 69/2/1 63/2/1 62/2/1
f 70/2/1 63/2/1 69/2/1
f 71/2/1 67/2/1 66/2/1
f 72/2/1 67/2/1 71/2/1
f 75/2/1 69/2/1 68/2/1
f 76/2/1 69/2/1 75/2/1
f 77/2/1 73/2/1 72/2/1
f 78/2/1 73/2/1 77/2/1
f 81/2/1 75/2/1 74/2/1
f 82/2/1 75/2/1 81/2/1
f 83/2/1 79/2/1 78/2/1
f 84/2/1 79/2/1 83/2/1
f 85/2/1 81/2/1 80/2/1
f 86/2/1 81/2/1 85/2/1
f 87/2/2 88/2/2 91/2/2
f 91/2/2 88/2/2 92/2/2
f 89/2/2 90/2/2 95/2/2
f 95/2/2 90/2/2 96/2/2
f 92/2/2 93/2/2 97/2/2
f 97/2/2 93/2/2 98/2/2
f 94/2/2 95/2/2 101/2/2
f 101/2/2 95/2/2 102/2/2
f 98/2/2 99/2/2 103/2/2
f 103/2/2 99/2/2 104/2/2
f 100/2/2 101/2/2 107/2/2
f 107/2/2 101/2/2 108/2/2
f 104/2/2 105/2/2 109/2/2
f 109/2/2 105/2/2 110/2/2
f 106/2/2 107/2/2 113/2/2
f 113/2/2 107/2/2 114/2/2
f 110/2/2 111/2/2 115/2/2
f 115/2/2 111/2/2 116/2/2
f 112/2/2 113/2/2 117/2/2
f 117/2/2 113/2/2 118/2/2
f 119/4/2 120/4/2 121/4/2
f 121/4/2 120/4/2 122/4/2
f 123/1/2 124/1/2 125/1/2
f 125/1/2 124/1/2 126/1/2
f 125/4/2 126/4/2 127/4/2
f 127/4/2 126/4/2 128/4/2
f 129/4/2 130/4/2 131/4/2
f 131/4/2 130/4/2 132/4/2
f 133/1/2 134/1/2 135/1/2
f 135/1/2 134/1/2 136/1/2
f 135/4/2 136/4/2 137/4/2
f 137/4/2 136/4/2 138/4/2
f 139/2/2 140/2/2 143/2/2
f 143/2/2 140/2/2 144/2/2
f 141/2/2 142/2/2 147/2/2
f 147/2/2 142/2/2 148/2/2
f 144/2/2 145/2/2 149/2/2
f 149/2/2 145/2/2 150/2/2
f 146/2/2 147/2/2 153/2/2
f 153/2/2 147/2/2 154/2/2
f 150/2/2 151/2/2 155/2/2
f 155/2/2 151/2/2 156/2/2
f 152/2/2 153/2/2 159/2/2
f 159/2/2 153/2/2 160/2/2
f 156/2/2 157/2/2 161/2/2
f 161/2/2 157/2/2 162/2/2
f 158/2/2 159/2/2 165/2/2
f 165/2/2 159/2/2 166/2/2
f 162/2/2 163/2/2 167/2/2
f 167/2/2 163/2/2 168/2/2
f 164/2/2 165/2/2 169/2/2
f 169/2/2 165/2/2 170/2/2
f 168/3/2 169/3/2 171/3/2
f 171/3/2 169/3/2 172/3/2
f 175/2/3 174/2/3 173/2/3
f 176/2/3 174/2/3 175/2/3
f 179/2/3 178/2/3 177/2/3
f 180/2/3 178/2/3 179/2/3
f 183/2/3 182/2/3 181/2/3
f 184/2/3 182/2/3 183/2/3
f 187/2/3 186/2/3 185/2/3
f 188/2/3 186/2/3 187/2/3
f 191/2/3 190/2/3 189/2/3
f 192/2/3 190/2/3 191/2/3
f 195/2/3 194/2/3 193/2/3
f 196/2/3 194/2/3 195/2/3
f 199/2/3 198/2/3 197/2/3
f 200/2/3 198/2/3 199/2/3
f 203/2/3 202/2/3 201/2/3
f 204/2/3 202/2/3 203/2/3
f 207/2/3 206/2/3 205/2/3
f 208/2/3 206/2/3 207/2/3
f 211/2/3 210/2/3 209/2/3
f 212/2/3 210/2/3 211/2/3
f 215/3/3 214/3/3 213/3/3
f 216/3/3 214/3/3 215/3/3
f 219/2/3 216/2/3 215/2/3
f 220/2/3 216/2/3 219/2/3
f 221/1/3 218/1/3 217/1/3
f 221/4/3 219/4/3 218/4/3
f 222/3/3 220/3/3 219/3/3
f 222/4/3 219/4/3 221/4/3
f 223/3/3 220/3/3 222/3/3
f 224/1/3 221/1/3 217/1/3
f 225/2/3 223/2/3 222/2/3
f 226/2/3 223/2/3 225/2/3
f 227/1/3 224/1/3 217/1/3
f 228/4/3 225/4/3 224/4/3
f 228/1/3 224/1/3 227/1/3
f 229/3/3 226/3/3 225/3/3
f 229/4/3 225/4/3 228/4/3
f 230/3/3 226/3/3 229/3/3
f 233/2/3 230/2/3 229/2/3
f 234/2/3 230/2/3 233/2/3
f 235/1/3 232/1/3 231/1/3
f 235/4/3 233/4/3 232/4/3
f 236/3/3 234/3/3 233/3/3
f 236/4/3 233/4/3 235/4/3
f 237/3/3 234/3/3 236/3/3
f 238/1/3 235/1/3 231/1/3
f 239/2/3 237/2/3 236/2/3
f 240/2/3 237/2/3 239/2/3
f 241/1/3 238/1/3 231/1/3
f 242/4/3 239/4/3 238/4/3
f 242/1/3 238/1/3 241/1/3
f 243/3/3 240/3/3 239/3/3
f 243/4/3 239/4/3 242/4/3
f 244/3/3 240/3/3 243/3/3
f 245/2/3 244/2/3 243/2/3
f 246/2/3 244/2/3 245/2/3
f 247/3/3 246/3/3 245/3/3
f 248/3/3 246/3/3 247/3/3
f 251/2/3 250/2/3 249/2/3
f 252/2/3 250/2/3 251/2/3
f 255/2/3 254/2/3 253/2/3
f 256/2/3 254/2/3 255/2/3
f 259/2/3 258/2/3 257/2/3
f 260/2/3 258/2/3 259/2/3
f 263/2/3 262/2/3 261/2/3
f 264/2/3 262/2/3 263/2/3
f 267/2/3 266/2/3 265/2/3
f 268/2/3 266/2/3 267/2/3
f 271/2/3 270/2/3 269/2/3
f 272/2/3 270/2/3 271/2/3
f 275/2/3 274/2/3 273/2/3
f 276/2/3 274/2/3 275/2/3
f 279/2/3 278/2/3 277/2/3
f 280/2/3 278/2/3 279/2/3
f 283/2/3 282/2/3 281/2/3
f 284/2/3 282/2/3 283/2/3
f 287/2/3 286/2/3 285/2/3
f 288/2/3 286/2/3 287/2/3
f 289/2/4 290/2/4 291/2/4
f 291/2/4 290/2/4 292/2/4
f 293/2/4 294/2/4 295/2/4
f 295/2/4 294/2/4 296/2/4
f 297/2/4 298/2/4 299/2/4
f 299/2/4 298/2/4 300/2/4
f 301/2/4 302/2/4 303/2/4
f 303/2/4 302/2/4 304/2/4
f 305/2/4 306/2/4 307/2/4
f 307/2/4 306/2/4 308/2/4
f 309/2/4 310/2/4 311/2/4
f 311/2/4 310/2/4 312/2/4
f 313/2/4 314/2/4 315/2/4
f 315/2/4 314/2/4 316/2/4
f 317/2/4 318/2/4 319/2/4
f 319/2/4 318/2/4 320/2/4
f 321/2/4 322/2/4 323/2/4
f 323/2/4 322/2/4 324/2/4
f 325/2/4 326/2/4 327/2/4
f 327/2/4 326/2/4 328/2/4
f 329/3/4 330/3/4 331/3/4
f 331/3/4 330/3/4 332/3/4
f 331/2/4 332/2/4 335/2/4
f 335/2/4 332/2/4 336/2/4
f 333/1/4 334/1/4 337/1/4
f 334/4/4 335/4/4 337/4/4
f 335/3/4 336/3/4 338/3/4
f 337/4/4 335/4/4 338/4/4
f 338/3/4 336/3/4 339/3/4
f 333/1/4 337/1/4 340/1/4
f 338/2/4 339/2/4 341/2/4
f 341/2/4 339/2/4 342/2/4
f 333/1/4 340/1/4 343/1/4
f 340/4/4 341/4/4 344/4/4
f 343/1/4 340/1/4 344/1/4
f 341/3/4 342/3/4 345/3/4
f 344/4/4 341/4/4 345/4/4
f 345/3/4 342/3/4 346/3/4
f 345/2/4 346/2/4 349/2/4
f 349/2/4 346/2/4 350/2/4
f 347/1/4 348/1/4 351/1/4
f 348/4/4 349/4/4 351/4/4
f 349/3/4 350/3/4 352/3/4
f 351/4/4 349/4/4 352/4/4
f 352/3/4 350/3/4 353/3/4
f 347/1/4 351/1/4 354/1/4
f 352/2/4 353/2/4 355/2/4
f 355/2/4 353/2/4 356/2/4
f 347/1/4 354/1/4 357/1/4
f 354/4/4 355/4/4 358/4/4
f 357/1/4 354/1/4 358/1/4
f 355/3/4 356/3/4 359/3/4
f 358/4/4 355/4/4 359/4/4
f 359/3/4 356/3/4 360/3/4
f 359/2/4 360/2/4 361/2/4
f 361/2/4 360/2/4 362/2/4
f 361/3/4 362/3/4 363/3/4
f 363/3/4 362/3/4 364/3/4
f 365/2/4 366/2/4 367/2/4
f 367/2/4 366/2/4 368/2/4
f 369/2/4 370/2/4 371/2/4
f 371/2/4 370/2/4 372/2/4
f 373/2/4 374/2/4 375/2/4
f 375/2/4 374/2/4 376/2/4
f 377/2/4 378/2/4 379/2/4
f 379/2/4 378/2/4 380/2/4
f 381/2/4 382/2/4 383/2/4
f 383/2/4 382/2/4 384/2/4
f 385/2/4 386/2/4 387/2/4
f 387/2/4 386/2/4 388/2/4
f 389/2/4 390/2/4 391/2/4
f 391/2/4 390/2/4 392/2/4
f 393/2/4 394/2/4 395/2/4
f 395/2/4 394/2/4 396/2/4
f 397/2/4 398/2/4 399/2/4
f 399/2/4 398/2/4 400/2/4
f 401/2/4 402/2/4 403/2/4
f 403/2/4 402/2/4 404/2/4
f 409/2/5 406/2/5 405/2/5
f 410/2/5 406/2/5 409/2/5
f 411/2/5 408/2/5 407/2/5
f 412/2/5 408/2/5 411/2/5
f 417/2/5 414/2/5 413/2/5
f 418/2/5 414/2/5 417/2/5
f 419/2/5 416/2/5 415/2/5
f 420/2/5 416/2/5 419/2/5
f 425/1/5 422/1/5 421/1/5
f 426/1/5 422/1/5 425/1/5
f 427/1/5 424/1/5 423/1/5
f 428/1/5 424/1/5 427/1/5
f 433/2/5 430/2/5 429/2/5
f 434/2/5 430/2/5 433/2/5
f 435/2/5 432/2/5 431/2/5
f 436/2/5 432/2/5 435/2/5
f 441/2/5 438/2/5 437/2/5
f 442/2/5 438/2/5 441/2/5
f 443/2/5 440/2/5 439/2/5
f 444/2/5 440/2/5 443/2/5
f 449/2/5 446/2/5 445/2/5
f 450/2/5 446/2/5 449/2/5
f 451/2/5 448/2/5 447/2/5
f 452/2/5 448/2/5 451/2/5
f 457/2/5 454/2/5 453/2/5
f 458/2/5 454/2/5 457/2/5
f 459/2/5 456/2/5 455/2/5
f 460/2/5 456/2/5 459/2/5
f 465/2/5 462/2/5 461/2/5
f 466/2/5 462/2/5 465/2/5
f 467/2/5 464/2/5 463/2/5
f 468/2/5 464/2/5 467/2/5
f 473/2/5 470/2/5 469/2/5
f 474/2/5 470/2/5 473/2/5
f 475/2/5 472/2/5 471/2/5
f 476/2/5 472/2/5 475/2/5
f 481/2/5 478/2/5 477/2/5
f 482/2/5 478/2/5 481/2/5
f 483/2/5 480/2/5 479/2/5
f 484/2/5 480/2/5 483/2/5
f 489/2/5 486/2/5 485/2/5
f 490/2/5 486/2/5 489/2/5
f 491/2/5 488/2/5 487/2/5
f 492/2/5 488/2/5 491/2/5
f 505/3/5 494/3/5 493/3/5
f 506/2/5 495/2/5 494/2/5
f 506/3/5 494/3/5 505/3/5
f 507/2/5 495/2/5 506/2/5
f 508/2/5 497/2/5 496/2/5
f 509/2/5 497/2/5 508/2/5
f 510/2/5 499/2/5 498/2/5
f 511/2/5 499/2/5 510/2/5
f 512/2/5 501/2/5 500/2/5
f 513/2/5 501/2/5 512/2/5
f 514/2/5 503/2/5 502/2/5
f 515/3/5 504/3/5 503/3/5
f 515/2/5 503/2/5 514/2/5
f 516/3/5 504/3/5 515/3/5
f 517/2/6 518/2/6 521/2/6
f 521/2/6 518/2/6 522/2/6
f 519/2/6 520/2/6 523/2/6
f 523/2/6 520/2/6 524/2/6
f 525/1/6 526/1/6 529/1/6
f 529/1/6 526/1/6 530/1/6
f 527/1/6 528/1/6 531/1/6
f 531/1/6 528/1/6 532/1/6
f 533/2/6 534/2/6 537/2/6
f 537/2/6 534/2/6 538/2/6
f 535/2/6 536/2/6 539/2/6
f 539/2/6 536/2/6 540/2/6
f 541/2/6 542/2/6 545/2/6
f 545/2/6 542/2/6 546/2/6
f 543/2/6 544/2/6 547/2/6
f 547/2/6 544/2/6 548/2/6
f 549/2/6 550/2/6 553/2/6
f 553/2/6 550/2/6 554/2/6
f 551/2/6 552/2/6 555/2/6
f 555/2/6 552/2/6 556/2/6
f 557/2/6 558/2/6 561/2/6
f 561/2/6 558/2/6 562/2/6
f 559/2/6 560/2/6 563/2/6
f 563/2/6 560/2/6 564/2/6
f 565/2/6 566/2/6 569/2/6
f 569/2/6 566/2/6 570/2/6
f 567/2/6 568/2/6 571/2/6
f 571/2/6 568/2/6 572/2/6
f 573/2/6 574/2/6 577/2/6
f 577/2/6 574/2/6 578/2/6
f 575/2/6 576/2/6 579/2/6
f 579/2/6 576/2/6 580/2/6
f 581/2/6 582/2/6 585/2/6
f 585/2/6 582/2/6 586/2/6
f 583/2/6 584/2/6 587/2/6
f 587/2/6 584/2/6 588/2/6
f 589/2/6 590/2/6 593/2/6
f 593/2/6 590/2/6 594/2/6
f 591/2/6 592/2/6 595/2/6
f 595/2/6 592/2/6 596/2/6
f 597/2/6 598/2/6 601/2/6
f 601/2/6 598/2/6 602/2/6
f 599/2/6 600/2/6 603/2/6
f 603/2/6 600/2/6 604/2/6
f 605/3/6 606/3/6 617/3/6
f 606/2/6 607/2/6 618/2/6
f 617/3/6 606/3/6 618/3/6
f 607/3/6 608/3/6 619/3/6
f 618/2/6 607/2/6 619/2/6
f 608/2/6 609/2/6 620/2/6
f 619/3/6 608/3/6 620/3/6
f 609/3/6 610/3/6 621/3/6
f 620/2/6 609/2/6 621/2/6
f 610/2/6 611/2/6 622/2/6
f 621/3/6 610/3/6 622/3/6
f 611/3/6 612/3/6 623/3/6
f 622/2/6 611/2/6 623/2/6
f 612/2/6 613/2/6 624/2/6
f 623/3/6 612/3/6 624/3/6
f 613/3/6 614/3/6 625/3/6
f 624/2/6 613/2/6 625/2/6
f 614/2/6 615/2/6 626/2/6
f 625/3/6 614/3/6 626/3/6
f 615/3/6 616/3/6 627/3/6
f 626/2/6 615/2/6 627/2/6
f 627/3/6 616/3/6 628/3/6
